<svg version="1.1" viewBox="0.0 0.0 320.0 320.0" fill="none" stroke="none" stroke-linecap="square" stroke-miterlimit="10" xmlns:xlink="http://www.w3.org/1999/xlink" xmlns="http://www.w3.org/2000/svg"><clipPath id="p.0"><path d="m0 0l320.0 0l0 320.0l-320.0 0l0 -320.0z" clip-rule="nonzero"/></clipPath><g clip-path="url(#p.0)"><path fill="#ffffff" d="m0 0l320.0 0l0 320.0l-320.0 0z" fill-rule="evenodd"/><path fill="#000000" fill-opacity="0.0" d="m0 0l320.0 0l0 320.0l-320.0 0z" fill-rule="evenodd"/><path fill="#000000" d="m159.20297 233.92001l-32.28125 0l-12.84375 -33.390625l-58.75 0l-12.125 33.390625l-31.484375 0l57.25 -146.98438l31.375 0l58.859375 146.98438zm-54.640625 -58.15625l-20.25 -54.53125l-19.859375 54.53125l40.109375 0zm164.42203 4.125l28.765625 9.109375q-6.609375 24.0625 -22.0 35.75q-15.390625 11.671875 -39.046875 11.671875q-29.28125 0 -48.140625 -20.0q-18.84375 -20.0 -18.84375 -54.6875q0 -36.6875 18.953125 -56.984375q18.953125 -20.3125 49.828125 -20.3125q26.96875 0 43.8125 15.9375q10.03125 9.421875 15.046875 27.078125l-29.375 7.015625q-2.609375 -11.4375 -10.890625 -18.046875q-8.265625 -6.625 -20.09375 -6.625q-16.34375 0 -26.53125 11.734375q-10.171875 11.734375 -10.171875 38.0q0 27.875 10.03125 39.703125q10.03125 11.828125 26.0625 11.828125q11.84375 0 20.359375 -7.515625q8.515625 -7.515625 12.234375 -23.65625z" fill-rule="nonzero"/></g></svg>