<svg version="1.1" viewBox="0.0 0.0 320.0 320.0" fill="none" stroke="none" stroke-linecap="square" stroke-miterlimit="10" xmlns:xlink="http://www.w3.org/1999/xlink" xmlns="http://www.w3.org/2000/svg"><clipPath id="p.0"><path d="m0 0l320.0 0l0 320.0l-320.0 0l0 -320.0z" clip-rule="nonzero"/></clipPath><g clip-path="url(#p.0)"><path fill="#ffffff" d="m0 0l320.0 0l0 320.0l-320.0 0z" fill-rule="evenodd"/><path fill="#000000" fill-opacity="0.0" d="m0 0l320.0 0l0 320.0l-320.0 0z" fill-rule="evenodd"/><path fill="#000000" d="m9.658203 237.76001l59.375 -154.625l22.046875 0l63.28125 154.625l-23.3125 0l-18.03125 -46.828125l-64.65625 0l-16.984375 46.828125l-21.71875 0zm44.609375 -63.5l52.421875 0l-16.140625 -42.8125q-7.375 -19.515625 -10.96875 -32.0625q-2.953125 14.875 -8.328125 29.53125l-16.984375 45.34375zm226.75781 9.28125l20.46875 5.171875q-6.4375 25.203125 -23.15625 38.453125q-16.71875 13.234375 -40.875 13.234375q-24.984375 0 -40.65625 -10.171875q-15.65625 -10.1875 -23.828125 -29.484375q-8.171875 -19.3125 -8.171875 -41.453125q0 -24.15625 9.21875 -42.140625q9.234375 -17.984375 26.265625 -27.3125q17.03125 -9.328125 37.5 -9.328125q23.203125 0 39.015625 11.8125q15.828125 11.8125 22.046875 33.21875l-20.140625 4.75q-5.390625 -16.875 -15.625 -24.578125q-10.21875 -7.703125 -25.71875 -7.703125q-17.828125 0 -29.796875 8.546875q-11.96875 8.546875 -16.828125 22.9375q-4.84375 14.390625 -4.84375 29.6875q0 19.71875 5.734375 34.4375q5.75 14.71875 17.875 22.0q12.140625 7.265625 26.265625 7.265625q17.203125 0 29.109375 -9.90625q11.921875 -9.921875 16.140625 -29.4375z" fill-rule="nonzero"/></g></svg>